HIERARCHY
ROOT root
{
  OFFSET 0.000000 0.000000 0.000000
  CHANNELS 6 Xposition Yposition Zposition Zrotation Xrotation Yrotation 
  JOINT RightUpLegDummy
  {
    OFFSET 0.000000 0.000000 0.000000
    CHANNELS 0 
    JOINT RightUpLeg
    {
      OFFSET -3.521969 -3.412232 0.040020
      CHANNELS 3 Zrotation Xrotation Yrotation 
      JOINT RightLeg
      {
        OFFSET -0.065819 -16.623508 5.460826
        CHANNELS 3 Zrotation Xrotation Yrotation 
        JOINT RightFoot
        {
          OFFSET 0.256402 -15.394092 -6.158094
          CHANNELS 3 Zrotation Xrotation Yrotation 
          JOINT RightToes
          {
            OFFSET -1.015696 -1.998681 3.031789
            CHANNELS 3 Zrotation Xrotation Yrotation 
            End Site
            {
              OFFSET -1.310114 -0.362344 3.602931
            }
          }
        }
      }
    }
  }
  JOINT SpineDummy
  {
    OFFSET 0.000000 0.000000 0.000000
    CHANNELS 0 
    JOINT Spine
    {
      OFFSET 0.000000 4.681300 0.000000
      CHANNELS 3 Zrotation Xrotation Yrotation 
      JOINT Spine1
      {
        OFFSET 2.071949 9.886125 0.108548
        CHANNELS 3 Zrotation Xrotation Yrotation 
        JOINT HEadDummy
        {
          OFFSET 0.000000 0.000000 0.000000
          CHANNELS 0 
          JOINT HEad
          {
            OFFSET -0.095701 3.425360 -0.286470
            CHANNELS 3 Zrotation Xrotation Yrotation 
            End Site
            {
              OFFSET -0.747771 4.988194 0.918898
            }
          }
        }
        JOINT LeftShoulder1Dummy
        {
          OFFSET 0.000000 0.000000 0.000000
          CHANNELS 0 
          JOINT LeftShoulder1
          {
            OFFSET 3.457013 0.018281 0.776975
            CHANNELS 3 Zrotation Xrotation Yrotation 
            JOINT LeftArm
            {
              OFFSET 3.894827 0.199098 1.093482
              CHANNELS 3 Zrotation Xrotation Yrotation 
              JOINT LeftForeArm
              {
                OFFSET 3.262652 -11.894247 3.823240
                CHANNELS 3 Zrotation Xrotation Yrotation 
                JOINT LeftHand
                {
                  OFFSET -1.519540 -8.072744 7.103004
                  CHANNELS 3 Zrotation Xrotation Yrotation 
                  End Site
                  {
                    OFFSET -1.058897 -4.575081 4.670206
                  }
                }
              }
            }
          }
        }
        JOINT RightShoulderDummy
        {
          OFFSET 0.000000 0.000000 0.000000
          CHANNELS 0 
          JOINT RightShoulder
          {
            OFFSET -3.407103 -0.315450 -0.920386
            CHANNELS 3 Zrotation Xrotation Yrotation 
            JOINT RightArm
            {
              OFFSET -3.182511 -2.457959 -0.484850
              CHANNELS 3 Zrotation Xrotation Yrotation 
              JOINT RightForeArm
              {
                OFFSET -1.492613 -12.131291 -4.320199
                CHANNELS 3 Zrotation Xrotation Yrotation 
                JOINT RightHand
                {
                  OFFSET -0.531323 -10.777759 -0.934089
                  CHANNELS 3 Zrotation Xrotation Yrotation 
                  End Site
                  {
                    OFFSET -1.128421 -6.472928 -0.326164
                  }
                }
              }
            }
          }
        }
      }
    }
  }
  JOINT LeftUpLegDummy
  {
    OFFSET 0.000000 0.000000 0.000000
    CHANNELS 0 
    JOINT LeftUpLeg
    {
      OFFSET 3.521969 -3.412232 0.040020
      CHANNELS 3 Zrotation Xrotation Yrotation 
      JOINT LeftLeg
      {
        OFFSET -0.878656 -15.959824 -7.118864
        CHANNELS 3 Zrotation Xrotation Yrotation 
        JOINT LeftFoot
        {
          OFFSET -1.336856 -11.261468 -12.097852
          CHANNELS 3 Zrotation Xrotation Yrotation 
          JOINT LeftToes
          {
            OFFSET 1.184947 -2.504138 2.557987
            CHANNELS 3 Zrotation Xrotation Yrotation 
            End Site
            {
              OFFSET 1.484637 -0.961396 3.420200
            }
          }
        }
      }
    }
  }
}
MOTION
Frames: 16
Frame Time: 0.033333
16.572900 37.702800 0.344146 -7.579411 2.766628 -87.593947 4.458918 -5.838913 -7.398308 0.820242 -9.394065 0.513048 -4.839561 10.250838 2.373736 -0.000000 -0.000000 -0.000000 17.786763 12.155139 -0.075420 -10.176800 5.380278 4.788975 -7.392756 -17.592526 -5.538645 -0.000000 -0.000000 -0.000000 -0.169337 -15.537193 -9.993427 4.044688 14.175746 -2.798862 -0.000000 -0.000000 -0.000000 2.481474 -0.591491 0.441461 -6.569477 -15.385871 3.503882 3.703757 6.741408 6.882396 1.300056 0.995263 -0.266527 1.310235 -10.487978 -5.613169 1.085317 18.104534 2.524588 -7.133936 3.043286 4.477120 -0.000000 -0.000000 -0.000000 
15.112400 37.606000 0.122018 -8.244733 4.405375 -88.096200 7.063944 -4.967691 -8.143919 0.768691 -5.505000 2.500078 -6.741046 8.886132 2.895789 -0.000000 -0.000000 -0.000000 21.322644 12.305230 0.165555 -11.583403 5.877947 5.877642 -7.514943 -17.527503 -6.108026 -0.000000 -0.000000 -0.000000 -4.667748 -12.083843 1.687019 10.798662 17.940746 -10.986755 -0.000000 -0.000000 -0.000000 2.654732 -0.631391 0.470634 -8.085141 -21.180813 5.248888 4.603398 7.700140 7.592809 1.322135 0.927959 -0.259088 4.552685 -13.625283 -4.194046 0.619171 28.221578 2.592616 -8.686338 11.742016 4.999952 -0.000000 -0.000000 -0.000000 
13.780600 37.536800 -0.142507 -8.934830 5.522495 -87.669219 8.696898 -3.344443 -7.610468 0.456224 -2.748665 1.398552 -8.538437 5.681896 3.104526 -0.000000 -0.000000 -0.000000 23.485986 12.560118 0.248764 -11.934014 6.296761 6.635631 -6.944968 -17.261467 -6.933890 -0.000000 -0.000000 -0.000000 -7.166091 -8.723681 11.383787 16.020236 20.613139 -15.879800 -0.000000 -0.000000 -0.000000 2.749189 -0.648947 0.469888 -9.742398 -27.259015 7.020877 5.299862 8.118472 7.969102 0.743516 0.605716 -0.155017 6.972174 -18.457291 -3.841631 0.412605 38.853788 2.666976 -8.480910 23.675537 4.351723 -0.000000 -0.000000 -0.000000 
12.545300 37.541700 -0.387251 -9.558579 6.141773 -86.729980 9.848961 -1.394109 -7.764336 0.065017 -1.142127 0.280061 -9.050060 2.864802 2.882814 -0.000000 -0.000000 -0.000000 25.288032 12.815640 0.273810 -12.392131 6.499230 7.354090 -6.053237 -16.470131 -8.132652 -0.000000 -0.000000 -0.000000 -7.487437 -4.848842 16.817385 19.217604 22.637101 -18.012955 -0.000000 -0.000000 -0.000000 2.849904 -0.663224 0.451282 -11.569665 -32.817696 8.557183 5.317816 7.359156 7.387390 -0.063195 0.230163 -0.024667 8.044007 -23.850605 -4.603189 -0.296385 47.870422 2.611098 -8.507079 30.611778 4.071117 -0.000000 -0.000000 -0.000000 
11.302500 37.701900 -0.574852 -10.094583 6.226409 -86.324370 10.378483 1.257951 -7.873685 -0.000105 -1.005929 0.132400 -8.622026 0.789950 2.472954 -0.000000 -0.000000 -0.000000 26.829697 12.983581 0.619041 -13.793067 6.555117 8.349573 -5.429326 -15.308970 -9.365243 -0.000000 -0.000000 -0.000000 -6.212972 -0.286657 18.716993 21.334154 23.575062 -20.201842 -0.000000 -0.000000 -0.000000 2.582531 -0.605290 0.420560 -13.280974 -37.797391 9.497308 4.559732 5.622330 5.788017 -0.460345 -0.056514 0.050561 7.877292 -28.784156 -5.290621 -1.980814 54.283121 2.925937 -8.133515 30.323857 3.767644 -0.000000 -0.000000 -0.000000 
10.054600 37.940900 -0.712420 -10.407487 5.875429 -86.589171 10.347070 4.324546 -7.833741 0.262411 -1.883848 0.568217 -8.369027 -1.080318 2.149673 -0.000000 -0.000000 -0.000000 27.974470 13.020664 1.265289 -15.681564 6.564770 9.522912 -5.226757 -14.127819 -10.421366 -0.000000 -0.000000 -0.000000 -3.978937 4.939509 18.340832 22.489459 23.109134 -22.965219 -0.000000 -0.000000 -0.000000 1.618835 -0.407578 0.359687 -14.480512 -42.403750 9.798928 3.313009 3.490338 3.625657 -0.572007 -0.272017 0.088616 6.948782 -33.317777 -5.607634 -4.657483 57.914131 3.872812 -7.303275 26.672417 3.297870 -0.000000 -0.000000 -0.000000 
8.831860 38.189600 -0.824634 -10.462672 5.306980 -87.025791 9.803890 7.401541 -7.447826 0.851816 -3.321427 0.543288 -8.515191 -2.551415 1.988166 -0.000000 -0.000000 -0.000000 28.780523 12.982940 1.988440 -17.492253 6.383092 10.623750 -5.224110 -13.114138 -11.381331 -0.000000 -0.000000 -0.000000 -1.247342 10.647563 16.385400 21.744357 21.899141 -23.861816 -0.000000 -0.000000 -0.000000 0.213822 -0.114055 0.264736 -15.286063 -46.464172 9.887715 1.837856 1.112836 1.269113 -0.870102 -0.448586 0.138040 5.535708 -37.709022 -6.068514 -6.706946 58.954047 4.711065 -6.477566 23.878477 2.814786 -0.000000 -0.000000 -0.000000 
7.642580 38.453400 -0.925385 -10.442483 4.653807 -87.343056 8.881128 10.579767 -6.532786 1.673728 -5.353727 -0.004645 -8.569179 -3.344953 1.893021 -0.000000 -0.000000 -0.000000 29.250829 13.054772 2.634994 -19.150016 5.948315 11.510995 -5.331756 -12.314191 -12.219800 -0.000000 -0.000000 -0.000000 1.302847 16.004029 14.686381 19.474696 20.815028 -22.055426 -0.000000 -0.000000 -0.000000 -1.138296 0.176393 0.159856 -15.887986 -49.625891 11.109942 0.006390 -1.694669 -1.544901 -1.299744 -0.618520 0.197388 3.790373 -41.664081 -6.908542 -6.796104 57.728066 4.620642 -5.082294 22.351567 1.846117 -0.000000 -0.000000 -0.000000 
6.490640 38.691000 -1.009850 -10.507450 3.951585 -87.584267 7.897248 13.864942 -5.622308 2.414018 -7.655934 -0.278960 -8.420728 -4.002535 1.766124 -0.000000 -0.000000 -0.000000 29.325850 13.319494 3.160487 -20.583579 5.509257 12.171575 -5.642914 -11.840072 -12.780187 -0.000000 -0.000000 -0.000000 2.917364 20.147941 15.158145 17.103132 20.153885 -19.119940 -0.000000 -0.000000 -0.000000 -2.275613 0.423100 0.075349 -15.752341 -51.658847 15.650759 -2.819677 -4.872129 -5.765461 -1.458640 -0.802804 0.233749 1.922928 -44.786892 -7.982379 -5.651921 54.514895 3.930081 -3.524015 20.329093 0.803293 -0.000000 -0.000000 -0.000000 
5.371120 38.867400 -1.077890 -10.555328 3.216748 -87.930071 7.061188 17.017801 -5.187078 2.883386 -9.872345 -0.027448 -8.404037 -4.794575 1.652832 -0.000000 -0.000000 -0.000000 29.011310 13.605083 3.678831 -21.772303 5.305072 12.720036 -6.087172 -11.813887 -13.087514 -0.000000 -0.000000 -0.000000 3.391204 22.758586 18.033131 15.678398 19.881604 -16.751370 -0.000000 -0.000000 -0.000000 -3.240181 0.632059 0.012857 -15.152757 -52.744576 22.335243 -6.612300 -7.799379 -10.561285 -1.325725 -0.981010 0.244046 0.219277 -47.125671 -8.976598 -4.420756 49.466146 3.213301 -2.961056 18.189675 0.534806 -0.000000 -0.000000 -0.000000 
4.279880 39.008700 -1.140090 -10.400405 2.502560 -88.530249 6.354365 19.850124 -5.088246 3.145028 -12.065558 0.560916 -8.607383 -5.304262 1.629853 -0.000000 -0.000000 -0.000000 28.429184 13.790881 4.285349 -22.935183 5.279221 13.269060 -6.413704 -12.141261 -13.228460 -0.000000 -0.000000 -0.000000 3.105139 24.001693 22.238285 15.355372 19.956348 -15.408622 -0.000000 -0.000000 -0.000000 -3.892266 0.777054 -0.037385 -14.884622 -53.261662 28.440174 -10.597494 -10.098140 -14.754497 -1.262266 -1.127699 0.256676 -0.978776 -48.890231 -9.499148 -3.421787 42.732038 2.601239 -3.447310 17.295566 0.957116 -0.000000 -0.000000 -0.000000 
3.211910 39.108200 -1.199600 -10.069387 1.926598 -89.239533 5.804009 22.325979 -5.167141 3.388667 -14.113037 1.483123 -8.726065 -5.683814 1.604179 -0.000000 -0.000000 -0.000000 27.780067 13.913728 4.817071 -24.072438 5.260029 13.722553 -6.521147 -12.561693 -13.075078 -0.000000 -0.000000 -0.000000 2.520445 24.315578 26.424027 15.641694 20.348478 -14.577819 -0.000000 -0.000000 -0.000000 -4.066449 0.820068 -0.063803 -15.200403 -53.644487 32.408317 -13.865893 -11.925240 -17.891556 -1.429293 -1.241783 0.284496 -1.429116 -50.094384 -9.379558 -2.539275 34.679486 2.070170 -4.294427 17.193945 1.584540 -0.000000 -0.000000 -0.000000 
2.139340 39.131200 -1.247770 -9.681673 1.548113 -89.802164 5.456900 24.541095 -5.401050 3.688997 -15.754354 2.560756 -8.600714 -6.479125 1.463823 -0.000000 -0.000000 -0.000000 27.075555 13.891736 5.134210 -24.883814 5.283003 13.911986 -6.543650 -12.916024 -12.516829 -0.000000 -0.000000 -0.000000 1.901726 24.147669 29.430009 16.031397 20.925977 -13.847354 -0.000000 -0.000000 -0.000000 -3.951472 0.795624 -0.058959 -15.594727 -54.204196 34.150008 -15.823241 -13.526604 -19.735941 -1.715933 -1.260241 0.310370 -1.263331 -50.627621 -8.782405 -1.520451 25.774414 1.706457 -5.156134 17.017444 2.227177 -0.000000 -0.000000 -0.000000 
1.050400 39.119200 -1.276720 -9.198912 1.271715 -90.278279 5.192270 26.643592 -5.636742 3.924395 -17.340759 3.429104 -8.504856 -7.237626 1.335560 -0.000000 -0.000000 -0.000000 26.128522 13.598348 5.367560 -25.333572 5.526526 13.919102 -6.592165 -13.196782 -11.733275 -0.000000 -0.000000 -0.000000 1.376433 23.782888 30.665198 16.319700 21.416059 -13.405106 -0.000000 -0.000000 -0.000000 -3.898076 0.779208 -0.040592 -15.302837 -54.815659 34.704430 -16.532311 -14.817431 -20.280117 -2.082632 -1.089409 0.320799 -0.755119 -50.445371 -7.792886 -0.088222 16.241071 1.746383 -5.811896 17.413505 2.682385 -0.000000 -0.000000 -0.000000 
-0.050417 39.107600 -1.279050 -8.598894 1.028685 -90.902903 4.895927 28.650596 -5.754157 4.019038 -19.060408 4.173545 -8.579717 -7.485773 1.316588 -0.000000 -0.000000 -0.000000 24.988868 13.171559 5.605624 -25.649612 5.903419 13.925083 -6.606351 -13.418611 -10.947515 -0.000000 -0.000000 -0.000000 0.990589 23.302586 30.412371 16.478686 21.555866 -13.521793 -0.000000 -0.000000 -0.000000 -3.896785 0.770733 -0.014415 -13.838437 -54.887627 35.963522 -16.734219 -15.467747 -20.195719 -2.479941 -0.829946 0.324795 0.042143 -49.707495 -6.396839 1.467143 6.694531 2.303550 -5.861264 18.883773 2.630922 -0.000000 -0.000000 -0.000000 
-1.202270 39.026000 -1.243170 -8.074678 0.837376 -91.686064 4.586925 30.546211 -5.958211 4.107112 -20.216163 5.271155 -8.341924 -8.115764 1.179029 -0.000000 -0.000000 -0.000000 23.917823 12.844209 5.719234 -25.870890 6.133308 13.875273 -6.520930 -13.629994 -10.201331 -0.000000 -0.000000 -0.000000 0.715838 22.528426 29.415578 16.503915 21.378953 -13.940938 -0.000000 -0.000000 -0.000000 -3.638481 0.705624 0.029878 -11.543767 -54.074747 38.317843 -16.681322 -15.456470 -19.671187 -2.654411 -0.754075 0.331383 0.496485 -48.901355 -5.858205 2.718840 -0.780230 3.520733 -5.166388 19.921516 2.056345 -0.000000 -0.000000 -0.000000 
